<svg width="38.000000" height="28.000000" viewBox="0 0 38 28" fill="none" xmlns="http://www.w3.org/2000/svg" xmlns:xlink="http://www.w3.org/1999/xlink">
	<desc>
			Created with Pixso.
	</desc>
	<defs/>
	<path id="path" d="M6.7 0.61C7.57 0.61 6.31 2.26 7.9 7.9C8.53 10.15 9.5 12.69 11.25 14.38C13.58 16.62 13.9 15.43 13.9 13.35C13.9 11.26 13.9 5.22 13.36 3.64C12.83 2.06 11.86 1.99 12.38 0.72C12.72 -0.1 15.35 0.03 17.62 0.03C19.89 0.03 21.11 -0.26 21.11 1.78L21.11 11.54C21.11 12.94 21.98 14.02 24.01 11.26C26.05 8.49 27.99 4.03 28.47 2.79C28.95 1.55 29.34 0 31.28 0L35.01 0C36.42 0 37.1 0.78 35.88 3.64C35.88 3.64 32.71 10.02 31.71 11.68C30.04 14.44 29.8 14.66 31.81 17.01C33.54 19.13 35.08 21.44 36.41 23.89C37.19 25.32 37.48 26.99 35.39 26.99L31.38 26.99C29.15 26.99 29.05 25.93 27.02 23.27C24.87 20.45 23.88 19.57 23.31 19.24C22.18 18.58 21.1 18.53 21.1 21.18C21.1 25.53 21.82 26.99 18.94 26.99C15.8 26.99 10.39 27.11 5.65 21.26C-0.76 13.36 -0.82 0.6 1.08 0.6L6.7 0.61Z" fill="#1E1EBF" fill-opacity="1.000000" fill-rule="nonzero"/>
	<path id="path" d="M7.9 7.9C8.53 10.15 9.5 12.69 11.25 14.38C13.58 16.62 13.9 15.43 13.9 13.35C13.9 11.26 13.9 5.22 13.36 3.64C12.83 2.06 11.86 1.99 12.38 0.72C12.72 -0.1 15.35 0.03 17.62 0.03C19.89 0.03 21.11 -0.26 21.11 1.78L21.11 11.54C21.11 12.94 21.98 14.02 24.01 11.26C26.05 8.49 27.99 4.03 28.47 2.79C28.95 1.55 29.34 0 31.28 0L35.01 0C36.42 0 37.1 0.78 35.88 3.64C35.88 3.64 32.71 10.02 31.71 11.68C30.04 14.44 29.8 14.66 31.81 17.01C33.54 19.13 35.08 21.44 36.41 23.89C37.19 25.32 37.48 26.99 35.39 26.99L31.38 26.99C29.15 26.99 29.05 25.93 27.02 23.27C24.87 20.45 23.88 19.57 23.31 19.24C22.18 18.58 21.1 18.53 21.1 21.18C21.1 25.53 21.82 26.99 18.94 26.99C15.8 26.99 10.39 27.11 5.65 21.26C-0.76 13.36 -0.82 0.6 1.08 0.6L6.7 0.61C7.57 0.61 6.31 2.26 7.9 7.9Z" stroke="#1E1EBF" stroke-opacity="1.000000" stroke-width="1.500000" stroke-linejoin="round"/>
</svg>
