<svg width="35.000000" height="35.000000" viewBox="0 0 35 35" fill="none" xmlns="http://www.w3.org/2000/svg" xmlns:xlink="http://www.w3.org/1999/xlink">
	<desc>
			Created with Pixso.
	</desc>
	<defs>
		<clipPath id="clip98_23">
			<rect id="dollarcoin" width="35.000000" height="35.000000" fill="white" fill-opacity="0"/>
		</clipPath>
	</defs>
	<g clip-path="url(#clip98_23)">
		<path id="path" d="M17.52 4.12C10.12 4.12 4.12 10.12 4.12 17.52C4.12 24.92 10.12 30.92 17.52 30.92C24.92 30.92 30.92 24.92 30.92 17.52C30.92 10.12 24.92 4.12 17.52 4.12ZM17.52 28.85C11.25 28.85 6.18 23.78 6.18 17.52C6.18 11.25 11.25 6.18 17.52 6.18C23.78 6.18 28.85 11.25 28.85 17.52C28.85 23.78 23.78 28.85 17.52 28.85ZM17.52 0C7.84 0 0 7.84 0 17.52C0 27.19 7.84 35.04 17.52 35.04C27.19 35.04 35.04 27.19 35.04 17.52C35.04 7.84 27.19 0 17.52 0ZM17.52 32.98C8.98 32.98 2.06 26.05 2.06 17.52C2.06 8.98 8.98 2.06 17.52 2.06C26.05 2.06 32.98 8.98 32.98 17.52C32.98 26.06 26.05 32.98 17.52 32.98ZM18.71 11.1L18.59 11.1L18.59 9.27L16.45 9.27L16.45 11.1L16.34 11.1C14.76 11.1 13.4 12.23 13.4 13.72L13.4 15.95C13.4 17.26 14.66 18.32 16.18 18.32L16.45 18.32L16.45 21.96C15.96 21.88 15.58 21.51 15.58 21.07L15.58 20.16L13.4 20.16L13.4 21.32C13.4 22.81 14.77 23.94 16.34 23.94L16.45 23.94L16.45 25.77L18.59 25.77L18.59 23.94L18.71 23.94C20.28 23.94 21.65 22.79 21.65 21.32L21.65 18.83C21.65 17.57 20.49 16.48 19.02 16.48L18.59 16.48L18.59 13.08C19.09 13.16 19.47 13.52 19.47 13.95L19.47 14.9L21.65 14.9L21.65 13.72C21.65 12.28 20.28 11.1 18.71 11.1ZM16.45 16.46C15.96 16.39 15.58 16.09 15.58 15.68L15.58 13.95C15.58 13.52 15.98 13.15 16.45 13.08C16.45 13.08 16.45 16.46 16.45 16.46ZM19.46 19.23L19.46 21.06C19.46 21.52 19.09 21.88 18.59 21.96L18.59 18.37C19.1 18.48 19.46 18.82 19.46 19.23Z" fill="#FFFFFF" fill-opacity="1.000000" fill-rule="nonzero"/>
	</g>
</svg>
