<svg width="309.000000" height="288.000000" viewBox="0 0 309 288" fill="none" xmlns="http://www.w3.org/2000/svg" xmlns:xlink="http://www.w3.org/1999/xlink">
	<desc>
			Created with Pixso.
	</desc>
	<defs>
		<clipPath id="clip106_49">
			<rect id="instagram (2)" width="253.875671" height="223.017853" transform="translate(65.705078 0.000000) rotate(17.134636)" fill="white" fill-opacity="0"/>
		</clipPath>
	</defs>
	<g clip-path="url(#clip106_49)">
		<path id="path" d="M222.88 48.45L139.63 22.79C101.32 10.98 61.48 30.54 50.4 66.46L26.34 144.52C15.26 180.44 37.03 219.49 75.34 231.3L158.6 256.97C196.9 268.78 237.59 248.98 248.67 213.06L272.73 135C283.81 99.09 261.19 60.27 222.88 48.45ZM227.72 206.61C219.98 231.71 191.46 245.49 164.68 237.24L81.42 211.57C54.65 203.32 39.07 175.94 46.81 150.83L70.87 72.77C78.61 47.67 106.9 33.81 133.68 42.07L216.94 67.74C243.71 75.99 259.53 103.44 251.79 128.55L227.72 206.61Z" fill="#FFC107" fill-opacity="0.206048" fill-rule="nonzero"/>
		<path id="path" d="M165.22 87.61C134.57 78.16 102.54 93.8 93.68 122.54C84.82 151.28 102.49 182.24 133.14 191.69C163.79 201.14 195.82 185.5 204.68 156.76C213.54 128.02 195.88 97.06 165.22 87.61ZM139.15 172.18C120.03 166.28 108.97 146.89 114.49 128.96C120.02 111.01 140.09 101.23 159.21 107.13C178.33 113.02 189.4 132.4 183.87 150.35C178.34 168.27 158.27 178.07 139.15 172.18Z" fill="#FFC107" fill-opacity="0.206048" fill-rule="nonzero"/>
		<path id="path" d="M228.23 95.16C224.14 93.9 219.88 95.99 218.69 99.82C217.51 103.65 219.87 107.77 223.95 109.03C228.04 110.29 232.31 108.21 233.49 104.38C234.67 100.55 232.31 96.42 228.23 95.16Z" fill="#FFC107" fill-opacity="0.206048" fill-rule="nonzero"/>
	</g>
</svg>
