<svg width="322.000000" height="323.000000" viewBox="0 0 322 323" fill="none" xmlns="http://www.w3.org/2000/svg" xmlns:xlink="http://www.w3.org/1999/xlink">
	<desc>
			Created with Pixso.
	</desc>
	<defs>
		<clipPath id="clip102_88">
			<rect id="viber2" width="268.495880" height="274.468292" transform="translate(58.496643 -0.999756) rotate(11.834065)" fill="white" fill-opacity="0"/>
		</clipPath>
	</defs>
	<g clip-path="url(#clip102_88)">
		<path id="path" d="M183.29 25.19C162.15 21.03 116.04 15.07 85.5 33.49C62.47 48.62 49.74 75.44 41.36 110.14C33.14 144.75 18.13 209.84 75.89 240.52L69.99 267.58C69.99 267.58 67.24 278.33 73.77 282.02C81.8 286.62 88.53 279.32 98.7 272.09L117.87 257.63C159.26 270.04 193.36 268.56 197.34 268.12C206.51 267.12 256.08 270.93 278.19 207.33C300.97 141.63 298.22 96.64 280.72 72.89C275.51 65.37 253.35 40.27 194.63 27.74C194.63 27.74 190.33 26.53 183.29 25.19ZM179.88 44.29C185.88 45.5 189.46 46.52 189.46 46.52C239.17 57.08 259.58 77.33 264.06 83.65C278.84 103.45 279.9 143.7 260.73 198.53C242.29 251.71 202.45 246.97 194.7 247.81C191.4 248.17 161.39 249.37 126.07 239.5C126.07 239.5 92.21 266.78 82.02 273.5C80.37 274.7 78.73 274.81 77.79 274.39C76.46 273.74 76.42 271.87 77.04 269.44L87.09 224.58C38.03 198.88 53.25 143.87 60.15 114.92C67.14 85.98 77.67 63.31 97.1 50.54C122.84 35.26 161.93 40.67 179.88 44.29ZM177.48 74.18C175.69 73.76 173.87 74.97 173.47 76.81C173.06 78.68 174.23 80.48 176.03 80.86C192.56 84 207.04 93.7 216.29 107.87C225.64 122.2 227.99 139.3 223.68 160.13C223.28 161.96 224.4 163.79 226.24 164.18C228.04 164.55 229.89 163.25 230.29 161.41C235.41 141.81 232.42 121.1 222.05 104.05C211.87 88.36 196.86 78.24 177.48 74.18ZM132.52 72.79C130.29 71.96 127.79 71.94 125.51 72.73C120.48 74.47 115.42 76.92 110.51 80.59C106.74 83.5 104.34 86.74 103.16 90.09C102.45 92.09 102.18 94.18 102.35 96.27C103.52 107.1 105.99 117.94 109.37 128.23C113.5 142.56 119.45 156.27 127.05 169L127.86 170.36C136.12 182.73 146.18 194.28 157.28 204.09C169.98 215.14 177.92 220.78 182.84 223.45C184.28 224.26 185.62 224.85 187.03 225.15C191.6 225.74 196.24 224.8 200.25 222.4C205.39 219.36 209.7 215.75 213.23 211.7C216.81 207.38 216.97 202.54 214.01 198.67C208.16 190.65 201.5 183.22 194.24 176.51C189.32 172.23 183.22 172.92 180.23 175.58L173.93 180.87C170.72 183.49 166.23 182.09 166.23 182.09C134 166.02 132.44 128.86 132.44 128.86C132.44 128.86 133.06 123.97 136.76 122.19L144.02 118.41C147.5 116.58 150.82 111.22 148.91 104.83C145.94 95.26 142.05 86.05 137.29 77.29C136.3 75.26 134.61 73.69 132.52 72.79ZM179.32 93.01C174.96 92.09 173.49 98.82 177.89 99.74C188.8 102.21 198.23 109.02 204.09 118.64C209.32 127.91 210.64 139.05 207.67 149.42C207.31 151.27 208.44 153.06 210.23 153.43C212.03 153.81 213.95 152.8 214.35 150.97C217.55 137.71 215.93 125.69 209.93 115.07C203.88 104.45 193.35 96.99 179.32 93.01ZM180.77 112.21C176.31 111.13 174.64 117.95 179.06 119.02C189.76 121.86 193.8 128.54 191.99 140.16C191.63 142.01 192.77 143.75 194.52 144.12C196.38 144.42 198.32 143.14 198.6 141.23C201.09 126.1 194.8 115.96 180.77 112.21Z" fill="#A670CB" fill-opacity="1.000000" fill-rule="nonzero"/>
	</g>
</svg>
