<svg width="334.000000" height="332.000000" viewBox="0 0 334 332" fill="none" xmlns="http://www.w3.org/2000/svg" xmlns:xlink="http://www.w3.org/1999/xlink">
	<desc>
			Created with Pixso.
	</desc>
	<defs>
		<clipPath id="clip102_48">
			<rect id="whatsapp" width="255.926712" height="249.744904" transform="translate(99.368164 0.000000) rotate(23.695919)" fill="white" fill-opacity="0"/>
		</clipPath>
	</defs>
	<g clip-path="url(#clip102_48)">
		<path id="path" d="M4.12 230.44C11.36 222.52 18.17 215.1 24.97 207.69C31.73 200.37 38.23 192.77 45.35 185.76C48.98 182.21 49.85 178.73 49.43 173.72C47.02 146.62 53.73 121.64 68.58 99.1C81.16 80.02 98.1 65.69 119.32 56.51C154.26 41.46 189.29 42.25 223.72 59.07C248.94 71.38 267.6 90.55 279.64 115.73C290.87 139.15 294.17 163.59 289.56 188.9C285.85 209.3 277.27 227.46 263.88 243.3C246.9 263.34 225.42 276.59 199.52 282.48C163.54 290.7 130.36 283.59 99.96 262.69C90.81 256.42 82.83 248.74 75.95 240.04C74.82 238.63 73.66 237.91 71.82 237.74C52.43 235.66 33.01 233.52 13.64 231.4C10.72 231.08 7.73 230.79 4.12 230.44ZM45.46 214.97C46.48 215.15 46.93 215.24 47.4 215.29C59.52 216.64 71.67 217.95 83.8 219.41C84.94 219.54 86.2 220.41 86.96 221.29C90.6 225.56 93.86 230.21 97.75 234.27C113.77 251.01 133.38 261.17 156.24 264.56C183.53 268.54 208.46 262.49 230.68 246.57C249.7 232.94 262.2 214.68 268 192.25C275.39 163.71 270.67 136.66 254.18 111.68C239.86 90.07 219.81 76.06 194.77 69.42C173.21 63.71 151.99 65.17 131.4 73.39C113.74 80.43 99.11 91.49 88.14 106.78C72.47 128.68 66.2 153.16 70.71 179.96C71.62 185.34 70.13 188.49 66.61 192.04C59.42 199.34 52.7 207.05 45.46 214.97Z" fill="#68E15D" fill-opacity="1.000000" fill-rule="nonzero"/>
		<path id="path" d="M214.08 222.83C210.13 231.44 203.07 236.22 192.83 236.66C182.77 237.07 173.89 234.41 166.7 227.28C160.24 220.86 153.65 214.48 147.74 207.55C139.97 198.4 135.02 187.65 131.1 176.44C126.77 164.04 124.12 151.19 122.99 138.2C122.17 129 123.15 120.05 127.81 111.8C132.75 103.04 140.31 97.62 150.06 95.3C152 94.87 154.41 95.34 156.37 95.98C158.87 96.87 161.14 98.29 163.49 99.54C165.42 100.6 165.91 102.47 165.89 104.39C165.78 109.49 165.49 114.51 165.27 119.61C165.13 123.04 164.66 126.47 164.79 129.91C164.94 134.16 162.61 136.62 159.23 138.35C156.34 139.82 153.41 141.16 150.39 142.19C147.88 143.07 146.81 144.64 147.11 147.18C148.33 158.7 151.11 169.79 156.64 180.2C160.29 187.05 165.03 193.05 170.09 198.92C171.57 200.64 173.46 201.31 175.66 200.29C180.38 198.12 185.12 196.02 189.81 193.79C192.83 192.39 194.03 192.38 196.14 194.91C202.27 202.21 208.25 209.61 214.28 217.02C215.67 218.81 215.42 220.63 214.08 222.83Z" fill="#68E15D" fill-opacity="1.000000" fill-rule="nonzero"/>
	</g>
</svg>
