<svg width="76.000000" height="60.000000" viewBox="0 0 76 60" fill="none" xmlns="http://www.w3.org/2000/svg" xmlns:xlink="http://www.w3.org/1999/xlink">
	<desc>
			Created with Pixso.
	</desc>
	<defs>
		<clipPath id="clip14_32">
			<rect id="cloud" width="76.000000" height="60.000000" fill="white" fill-opacity="0"/>
		</clipPath>
	</defs>
	<path stroke="#FFCF26" id="path" d="M65.51 26.64C63.31 22.03 57.67 18.75 51.06 18.75C49.54 18.75 48.07 18.92 46.67 19.24C42.91 14.44 36.17 11.25 28.5 11.25C16.85 11.25 7.37 18.6 7.12 27.75C2.86 29.7 0 33.34 0 37.5C0 43.71 6.38 48.75 14.25 48.75L61.75 48.75C69.61 48.75 76 43.7 76 37.5C76 32.31 71.55 27.95 65.51 26.64ZM61.75 45L14.24 45C9.01 45 4.75 41.64 4.75 37.5C4.75 33.95 7.88 30.97 12.07 30.19C11.94 29.52 11.87 28.83 11.87 28.12C11.87 20.87 19.31 15 28.5 15C36 15 42.35 18.93 44.41 24.32C46.24 23.18 48.54 22.5 51.06 22.5C56.56 22.5 61.09 25.78 61.68 30C66.91 30 71.25 33.35 71.25 37.5C71.25 41.63 67 45 61.75 45Z" fill="#0DACCD" fill-opacity="0.900000" fill-rule="nonzero"/>
</svg>
