<svg width="1235.000000" height="1252.000000" viewBox="0 0 1235 1252" fill="none" xmlns="http://www.w3.org/2000/svg" xmlns:xlink="http://www.w3.org/1999/xlink">
	<desc>
			Created with Pixso.
	</desc>
	<defs/>
	<ellipse id="Oval 7" rx="16.359230" ry="17.491583" transform="matrix(0.801426 0.801426 -0.598094 0.598094 617.625 658.02)" fill="#C4C4C4" fill-opacity="0.131335"/>
	<ellipse id="Oval 135" rx="16.359230" ry="17.491583" transform="matrix(0.801426 0.801426 -0.598094 0.598094 865.914 325.321)" fill="#C4C4C4" fill-opacity="0.131335"/>
	<ellipse id="Oval 1018" rx="16.359230" ry="17.491583" transform="matrix(0.801426 0.801426 -0.598094 0.598094 896.601 284.182)" fill="#C4C4C4" fill-opacity="0.131335"/>
	<ellipse id="Oval 39" rx="16.359230" ry="17.491583" transform="matrix(0.801426 0.801426 -0.598094 0.598094 492.318 825.927)" fill="#C4C4C4" fill-opacity="0.131335"/>
	<ellipse id="Oval 137" rx="16.359230" ry="17.491583" transform="matrix(0.801426 0.801426 -0.598094 0.598094 740.607 493.228)" fill="#C4C4C4" fill-opacity="0.131335"/>
	<ellipse id="Oval 15" rx="16.359230" ry="17.491583" transform="matrix(0.801426 0.801426 -0.598094 0.598094 587.17 698.828)" fill="#C4C4C4" fill-opacity="0.131335"/>
	<ellipse id="Oval 139" rx="16.359230" ry="17.491583" transform="matrix(0.801426 0.801426 -0.598094 0.598094 835.459 366.13)" fill="#C4C4C4" fill-opacity="0.131335"/>
	<ellipse id="Oval 40" rx="16.359230" ry="17.491583" transform="matrix(0.801426 0.801426 -0.598094 0.598094 461.863 866.735)" fill="#C4C4C4" fill-opacity="0.131335"/>
	<ellipse id="Oval 141" rx="16.359230" ry="17.491583" transform="matrix(0.801426 0.801426 -0.598094 0.598094 710.152 534.037)" fill="#C4C4C4" fill-opacity="0.131335"/>
	<ellipse id="Oval 23" rx="16.359230" ry="17.491583" transform="matrix(0.801426 0.801426 -0.598094 0.598094 556.018 740.572)" fill="#C4C4C4" fill-opacity="0.131335"/>
	<ellipse id="Oval 143" rx="16.359230" ry="17.491583" transform="matrix(0.801426 0.801426 -0.598094 0.598094 804.307 407.873)" fill="#C4C4C4" fill-opacity="0.131335"/>
	<ellipse id="Oval 41" rx="16.359230" ry="17.491583" transform="matrix(0.801426 0.801426 -0.598094 0.598094 430.711 908.479)" fill="#C4C4C4" fill-opacity="0.131335"/>
	<ellipse id="Oval 145" rx="16.359230" ry="17.491583" transform="matrix(0.801426 0.801426 -0.598094 0.598094 679 575.78)" fill="#C4C4C4" fill-opacity="0.131335"/>
	<ellipse id="Oval 146" rx="16.359230" ry="17.491583" transform="matrix(0.801426 0.801426 -0.598094 0.598094 377.421 348.29)" fill="#C4C4C4" fill-opacity="0.131335"/>
	<ellipse id="Oval 31" rx="16.359230" ry="17.491583" transform="matrix(0.801426 0.801426 -0.598094 0.598094 524.865 782.315)" fill="#C4C4C4" fill-opacity="0.131335"/>
	<ellipse id="Oval 147" rx="16.359230" ry="17.491583" transform="matrix(0.801426 0.801426 -0.598094 0.598094 773.154 449.616)" fill="#C4C4C4" fill-opacity="0.131335"/>
	<ellipse id="Oval 42" rx="16.359230" ry="17.491583" transform="matrix(0.801426 0.801426 -0.598094 0.598094 399.559 950.222)" fill="#C4C4C4" fill-opacity="0.131335"/>
	<ellipse id="Oval 149" rx="16.359230" ry="17.491583" transform="matrix(0.801426 0.801426 -0.598094 0.598094 647.847 617.523)" fill="#C4C4C4" fill-opacity="0.131335"/>
	<ellipse id="Oval 150" rx="16.359230" ry="17.491583" transform="matrix(0.801426 0.801426 -0.598094 0.598094 346.269 390.033)" fill="#C4C4C4" fill-opacity="0.131335"/>
	<ellipse id="Oval 11" rx="16.359230" ry="17.491583" transform="matrix(0.801426 0.801426 -0.598094 0.598094 766.563 769.656)" fill="#C4C4C4" fill-opacity="0.131335"/>
	<ellipse id="Oval 79" rx="16.359230" ry="17.491583" transform="matrix(0.801426 0.801426 -0.598094 0.598094 464.985 542.166)" fill="#C4C4C4" fill-opacity="0.131335"/>
	<ellipse id="Oval 43" rx="16.359230" ry="17.491583" transform="matrix(0.801426 0.801426 -0.598094 0.598094 641.256 937.562)" fill="#C4C4C4" fill-opacity="0.131335"/>
	<ellipse id="Oval 153" rx="16.359230" ry="17.491583" transform="matrix(0.801426 0.801426 -0.598094 0.598094 889.545 604.864)" fill="#C4C4C4" fill-opacity="0.131335"/>
	<ellipse id="Oval 80" rx="16.359230" ry="17.491583" transform="matrix(0.801426 0.801426 -0.598094 0.598094 339.678 710.073)" fill="#C4C4C4" fill-opacity="0.131335"/>
	<ellipse id="Oval 154" rx="16.359230" ry="17.491583" transform="matrix(0.801426 0.801426 -0.598094 0.598094 587.967 377.374)" fill="#C4C4C4" fill-opacity="0.131335"/>
	<ellipse id="Oval 16" rx="16.359230" ry="17.491583" transform="matrix(0.801426 0.801426 -0.598094 0.598094 736.108 810.464)" fill="#C4C4C4" fill-opacity="0.131335"/>
	<ellipse id="Oval 81" rx="16.359230" ry="17.491583" transform="matrix(0.801426 0.801426 -0.598094 0.598094 434.53 582.975)" fill="#C4C4C4" fill-opacity="0.131335"/>
	<ellipse id="Oval 156" rx="16.359230" ry="17.491583" transform="matrix(0.801426 0.801426 -0.598094 0.598094 682.819 250.276)" fill="#C4C4C4" fill-opacity="0.131335"/>
	<ellipse id="Oval 44" rx="16.359230" ry="17.491583" transform="matrix(0.801426 0.801426 -0.598094 0.598094 610.801 978.371)" fill="#C4C4C4" fill-opacity="0.131335"/>
	<ellipse id="Oval 157" rx="16.359230" ry="17.491583" transform="matrix(0.801426 0.801426 -0.598094 0.598094 859.09 645.672)" fill="#C4C4C4" fill-opacity="0.131335"/>
	<ellipse id="Oval 82" rx="16.359230" ry="17.491583" transform="matrix(0.801426 0.801426 -0.598094 0.598094 309.223 750.882)" fill="#C4C4C4" fill-opacity="0.131335"/>
	<ellipse id="Oval 158" rx="16.359230" ry="17.491583" transform="matrix(0.801426 0.801426 -0.598094 0.598094 557.512 418.183)" fill="#C4C4C4" fill-opacity="0.131335"/>
	<ellipse id="Oval 24" rx="16.359230" ry="17.491583" transform="matrix(0.801426 0.801426 -0.598094 0.598094 704.956 852.208)" fill="#C4C4C4" fill-opacity="0.131335"/>
	<ellipse id="Oval 83" rx="16.359230" ry="17.491583" transform="matrix(0.801426 0.801426 -0.598094 0.598094 403.378 624.718)" fill="#C4C4C4" fill-opacity="0.131335"/>
	<ellipse id="Oval 160" rx="16.359230" ry="17.491583" transform="matrix(0.801426 0.801426 -0.598094 0.598094 651.666 292.019)" fill="#C4C4C4" fill-opacity="0.131335"/>
	<ellipse id="Oval 161" rx="16.359230" ry="17.491583" transform="matrix(0.801426 0.801426 -0.598094 0.598094 827.938 687.415)" fill="#C4C4C4" fill-opacity="0.131335"/>
	<ellipse id="Oval 84" rx="16.359230" ry="17.491583" transform="matrix(0.801426 0.801426 -0.598094 0.598094 278.071 792.625)" fill="#C4C4C4" fill-opacity="0.131335"/>
	<ellipse id="Oval 162" rx="16.359230" ry="17.491583" transform="matrix(0.801426 0.801426 -0.598094 0.598094 526.36 459.926)" fill="#C4C4C4" fill-opacity="0.131335"/>
	<ellipse id="Oval 32" rx="16.359230" ry="17.491583" transform="matrix(0.801426 0.801426 -0.598094 0.598094 673.804 893.95)" fill="#C4C4C4" fill-opacity="0.131335"/>
	<ellipse id="Oval 163" rx="16.359230" ry="17.491583" transform="matrix(0.801426 0.801426 -0.598094 0.598094 922.092 561.252)" fill="#C4C4C4" fill-opacity="0.131335"/>
	<ellipse id="Oval 1005" rx="16.359230" ry="17.491583" transform="matrix(0.801426 0.801426 -0.598094 0.598094 959.775 589.346)" fill="#C4C4C4" fill-opacity="0.131335"/>
	<ellipse id="Oval 1010" rx="16.359230" ry="17.491583" transform="matrix(0.801426 0.801426 -0.598094 0.598094 997.59 617.566)" fill="#C4C4C4" fill-opacity="0.131335"/>
	<ellipse id="Oval 85" rx="16.359230" ry="17.491583" transform="matrix(0.801426 0.801426 -0.598094 0.598094 372.225 666.461)" fill="#C4C4C4" fill-opacity="0.131335"/>
	<ellipse id="Oval 164" rx="16.359230" ry="17.491583" transform="matrix(0.801426 0.801426 -0.598094 0.598094 620.514 333.762)" fill="#C4C4C4" fill-opacity="0.131335"/>
	<ellipse id="Oval 165" rx="16.359230" ry="17.491583" transform="matrix(0.801426 0.801426 -0.598094 0.598094 796.786 729.159)" fill="#C4C4C4" fill-opacity="0.131335"/>
	<ellipse id="Oval 166" rx="16.359230" ry="17.491583" transform="matrix(0.801426 0.801426 -0.598094 0.598094 495.207 501.669)" fill="#C4C4C4" fill-opacity="0.131335"/>
	<ellipse id="Oval 9" rx="16.359230" ry="17.491583" transform="matrix(0.801426 0.801426 -0.598094 0.598094 693.143 714.863)" fill="#C4C4C4" fill-opacity="0.131335"/>
	<ellipse id="Oval 87" rx="16.359230" ry="17.491583" transform="matrix(0.801426 0.801426 -0.598094 0.598094 391.565 487.374)" fill="#C4C4C4" fill-opacity="0.131335"/>
	<ellipse id="Oval 47" rx="16.359230" ry="17.491583" transform="matrix(0.801426 0.801426 -0.598094 0.598094 567.836 882.77)" fill="#C4C4C4" fill-opacity="0.131335"/>
	<ellipse id="Oval 169" rx="16.359230" ry="17.491583" transform="matrix(0.801426 0.801426 -0.598094 0.598094 816.125 550.071)" fill="#C4C4C4" fill-opacity="0.131335"/>
	<ellipse id="Oval 88" rx="16.359230" ry="17.491583" transform="matrix(0.801426 0.801426 -0.598094 0.598094 266.258 655.281)" fill="#C4C4C4" fill-opacity="0.131335"/>
	<ellipse id="Oval 170" rx="16.359230" ry="17.491583" transform="matrix(0.801426 0.801426 -0.598094 0.598094 514.547 322.582)" fill="#C4C4C4" fill-opacity="0.131335"/>
	<ellipse id="Oval 1011" rx="16.359230" ry="17.491583" transform="matrix(0.801426 0.801426 -0.598094 0.598094 476.598 294.734)" fill="#C4C4C4" fill-opacity="0.131335"/>
	<ellipse id="Oval 17" rx="16.359230" ry="17.491583" transform="matrix(0.801426 0.801426 -0.598094 0.598094 662.688 755.672)" fill="#C4C4C4" fill-opacity="0.131335"/>
	<ellipse id="Oval 171" rx="16.359230" ry="17.491583" transform="matrix(0.801426 0.801426 -0.598094 0.598094 910.977 422.973)" fill="#C4C4C4" fill-opacity="0.131335"/>
	<ellipse id="Oval 1003" rx="16.359230" ry="17.491583" transform="matrix(0.801426 0.801426 -0.598094 0.598094 949.054 450.57)" fill="#C4C4C4" fill-opacity="0.131335"/>
	<ellipse id="Oval 1008" rx="16.359230" ry="17.491583" transform="matrix(0.801426 0.801426 -0.598094 0.598094 984.08 477.887)" fill="#C4C4C4" fill-opacity="0.131335"/>
	<ellipse id="Oval 89" rx="16.359230" ry="17.491583" transform="matrix(0.801426 0.801426 -0.598094 0.598094 361.11 528.182)" fill="#C4C4C4" fill-opacity="0.131335"/>
	<ellipse id="Oval 48" rx="16.359230" ry="17.491583" transform="matrix(0.801426 0.801426 -0.598094 0.598094 537.381 923.579)" fill="#C4C4C4" fill-opacity="0.131335"/>
	<ellipse id="Oval 173" rx="16.359230" ry="17.491583" transform="matrix(0.801426 0.801426 -0.598094 0.598094 785.67 590.88)" fill="#C4C4C4" fill-opacity="0.131335"/>
	<ellipse id="Oval 174" rx="16.359230" ry="17.491583" transform="matrix(0.801426 0.801426 -0.598094 0.598094 484.092 363.391)" fill="#C4C4C4" fill-opacity="0.131335"/>
	<ellipse id="Oval 25" rx="16.359230" ry="17.491583" transform="matrix(0.801426 0.801426 -0.598094 0.598094 631.536 797.415)" fill="#C4C4C4" fill-opacity="0.131335"/>
	<ellipse id="Oval 175" rx="16.359230" ry="17.491583" transform="matrix(0.801426 0.801426 -0.598094 0.598094 879.825 464.716)" fill="#C4C4C4" fill-opacity="0.131335"/>
	<ellipse id="Oval 91" rx="16.359230" ry="17.491583" transform="matrix(0.801426 0.801426 -0.598094 0.598094 329.958 569.925)" fill="#C4C4C4" fill-opacity="0.131335"/>
	<ellipse id="Oval 1012" rx="16.359230" ry="17.491583" transform="matrix(0.801426 0.801426 -0.598094 0.598094 291.933 542.178)" fill="#C4C4C4" fill-opacity="0.131335"/>
	<ellipse id="Oval 49" rx="16.359230" ry="17.491583" transform="matrix(0.801426 0.801426 -0.598094 0.598094 506.229 965.322)" fill="#C4C4C4" fill-opacity="0.131335"/>
	<ellipse id="Oval 177" rx="16.359230" ry="17.491583" transform="matrix(0.801426 0.801426 -0.598094 0.598094 754.518 632.623)" fill="#C4C4C4" fill-opacity="0.131335"/>
	<ellipse id="Oval 178" rx="16.359230" ry="17.491583" transform="matrix(0.801426 0.801426 -0.598094 0.598094 452.94 405.134)" fill="#C4C4C4" fill-opacity="0.131335"/>
	<ellipse id="Oval 33" rx="16.359230" ry="17.491583" transform="matrix(0.801426 0.801426 -0.598094 0.598094 600.384 839.158)" fill="#C4C4C4" fill-opacity="0.131335"/>
	<ellipse id="Oval 179" rx="16.359230" ry="17.491583" transform="matrix(0.801426 0.801426 -0.598094 0.598094 848.673 506.459)" fill="#C4C4C4" fill-opacity="0.131335"/>
	<ellipse id="Oval 93" rx="16.359230" ry="17.491583" transform="matrix(0.801426 0.801426 -0.598094 0.598094 298.805 611.668)" fill="#C4C4C4" fill-opacity="0.131335"/>
	<ellipse id="Oval 1013" rx="16.359230" ry="17.491583" transform="matrix(0.801426 0.801426 -0.598094 0.598094 260.308 584.554)" fill="#C4C4C4" fill-opacity="0.131335"/>
	<ellipse id="Oval 180" rx="16.359230" ry="17.491583" transform="matrix(0.801426 0.801426 -0.598094 0.598094 547.094 278.97)" fill="#C4C4C4" fill-opacity="0.131335"/>
	<ellipse id="Oval 181" rx="16.359230" ry="17.491583" transform="matrix(0.801426 0.801426 -0.598094 0.598094 723.366 674.366)" fill="#C4C4C4" fill-opacity="0.131335"/>
	<ellipse id="Oval 182" rx="16.359230" ry="17.491583" transform="matrix(0.801426 0.801426 -0.598094 0.598094 421.787 446.877)" fill="#C4C4C4" fill-opacity="0.131335"/>
	<ellipse id="Oval 12" rx="16.359230" ry="17.491583" transform="matrix(0.801426 0.801426 -0.598094 0.598094 842.081 826.499)" fill="#C4C4C4" fill-opacity="0.131335"/>
	<ellipse id="Oval 95" rx="16.359230" ry="17.491583" transform="matrix(0.801426 0.801426 -0.598094 0.598094 540.503 599.01)" fill="#C4C4C4" fill-opacity="0.131335"/>
	<ellipse id="Oval 184" rx="16.359230" ry="17.491583" transform="matrix(0.801426 0.801426 -0.598094 0.598094 788.792 266.311)" fill="#C4C4C4" fill-opacity="0.131335"/>
	<ellipse id="Oval 1001" rx="16.359230" ry="17.491583" transform="matrix(0.801426 0.801426 -0.598094 0.598094 749.872 239.479)" fill="#C4C4C4" fill-opacity="0.131335"/>
	<ellipse id="Oval 96" rx="16.359230" ry="17.491583" transform="matrix(0.801426 0.801426 -0.598094 0.598094 415.196 766.917)" fill="#C4C4C4" fill-opacity="0.131335"/>
	<ellipse id="Oval 186" rx="16.359230" ry="17.491583" transform="matrix(0.801426 0.801426 -0.598094 0.598094 663.485 434.218)" fill="#C4C4C4" fill-opacity="0.131335"/>
	<ellipse id="Oval 18" rx="16.359230" ry="17.491583" transform="matrix(0.801426 0.801426 -0.598094 0.598094 811.627 867.307)" fill="#C4C4C4" fill-opacity="0.131335"/>
	<ellipse id="Oval 1016" rx="16.359230" ry="17.491583" transform="matrix(0.801426 0.801426 -0.598094 0.598094 852.011 897.715)" fill="#C4C4C4" fill-opacity="0.131335"/>
	<ellipse id="Oval 97" rx="16.359230" ry="17.491583" transform="matrix(0.801426 0.801426 -0.598094 0.598094 510.048 639.818)" fill="#C4C4C4" fill-opacity="0.131335"/>
	<ellipse id="Oval 188" rx="16.359230" ry="17.491583" transform="matrix(0.801426 0.801426 -0.598094 0.598094 758.337 307.12)" fill="#C4C4C4" fill-opacity="0.131335"/>
	<ellipse id="Oval 98" rx="16.359230" ry="17.491583" transform="matrix(0.801426 0.801426 -0.598094 0.598094 384.741 807.725)" fill="#C4C4C4" fill-opacity="0.131335"/>
	<ellipse id="Oval 190" rx="16.359230" ry="17.491583" transform="matrix(0.801426 0.801426 -0.598094 0.598094 633.03 475.026)" fill="#C4C4C4" fill-opacity="0.131335"/>
	<ellipse id="Oval 26" rx="16.359230" ry="17.491583" transform="matrix(0.801426 0.801426 -0.598094 0.598094 780.474 909.051)" fill="#C4C4C4" fill-opacity="0.131335"/>
	<ellipse id="Oval 99" rx="16.359230" ry="17.491583" transform="matrix(0.801426 0.801426 -0.598094 0.598094 478.896 681.561)" fill="#C4C4C4" fill-opacity="0.131335"/>
	<ellipse id="Oval 192" rx="16.359230" ry="17.491583" transform="matrix(0.801426 0.801426 -0.598094 0.598094 727.185 348.863)" fill="#C4C4C4" fill-opacity="0.131335"/>
	<ellipse id="Oval 193" rx="16.359230" ry="17.491583" transform="matrix(0.801426 0.801426 -0.598094 0.598094 903.456 744.259)" fill="#C4C4C4" fill-opacity="0.131335"/>
	<ellipse id="Oval 1014" rx="16.359230" ry="17.491583" transform="matrix(0.801426 0.801426 -0.598094 0.598094 944.061 774.371)" fill="#C4C4C4" fill-opacity="0.131335"/>
	<ellipse id="Oval 100" rx="16.359230" ry="17.491583" transform="matrix(0.801426 0.801426 -0.598094 0.598094 353.589 849.468)" fill="#C4C4C4" fill-opacity="0.131335"/>
	<ellipse id="Oval 194" rx="16.359230" ry="17.491583" transform="matrix(0.801426 0.801426 -0.598094 0.598094 601.878 516.77)" fill="#C4C4C4" fill-opacity="0.131335"/>
	<ellipse id="Oval 101" rx="16.359230" ry="17.491583" transform="matrix(0.801426 0.801426 -0.598094 0.598094 447.743 723.304)" fill="#C4C4C4" fill-opacity="0.131335"/>
	<ellipse id="Oval 196" rx="16.359230" ry="17.491583" transform="matrix(0.801426 0.801426 -0.598094 0.598094 696.032 390.606)" fill="#C4C4C4" fill-opacity="0.131335"/>
	<ellipse id="Oval 197" rx="16.359230" ry="17.491583" transform="matrix(0.801426 0.801426 -0.598094 0.598094 872.304 786.002)" fill="#C4C4C4" fill-opacity="0.131335"/>
	<ellipse id="Oval 102" rx="16.359230" ry="17.491583" transform="matrix(0.801426 0.801426 -0.598094 0.598094 322.436 891.211)" fill="#C4C4C4" fill-opacity="0.131335"/>
	<ellipse id="Oval 198" rx="16.359230" ry="17.491583" transform="matrix(0.801426 0.801426 -0.598094 0.598094 570.725 558.512)" fill="#C4C4C4" fill-opacity="0.131335"/>
	<ellipse id="Oval 8" rx="16.359230" ry="17.491583" transform="matrix(0.801426 0.801426 -0.598094 0.598094 655.268 686.597)" fill="#C4C4C4" fill-opacity="0.131335"/>
	<ellipse id="Oval 199" rx="16.359230" ry="17.491583" transform="matrix(0.801426 0.801426 -0.598094 0.598094 903.557 353.899)" fill="#C4C4C4" fill-opacity="0.131335"/>
	<ellipse id="Oval 1002" rx="16.359230" ry="17.491583" transform="matrix(0.801426 0.801426 -0.598094 0.598094 941.17 382.243)" fill="#C4C4C4" fill-opacity="0.131335"/>
	<ellipse id="Oval 103" rx="16.359230" ry="17.491583" transform="matrix(0.801426 0.801426 -0.598094 0.598094 353.69 459.108)" fill="#C4C4C4" fill-opacity="0.131335"/>
	<ellipse id="Oval 1019" rx="16.359230" ry="17.491583" transform="matrix(0.801426 0.801426 -0.598094 0.598094 316.238 430.719)" fill="#C4C4C4" fill-opacity="0.131335"/>
	<ellipse id="Oval 1020" rx="16.359230" ry="17.491583" transform="matrix(0.801426 0.801426 -0.598094 0.598094 284.437 471.785)" fill="#C4C4C4" fill-opacity="0.131335"/>
	<ellipse id="Oval 55" rx="16.359230" ry="17.491583" transform="matrix(0.801426 0.801426 -0.598094 0.598094 529.961 854.504)" fill="#C4C4C4" fill-opacity="0.131335"/>
	<ellipse id="Oval 201" rx="16.359230" ry="17.491583" transform="matrix(0.801426 0.801426 -0.598094 0.598094 778.25 521.806)" fill="#C4C4C4" fill-opacity="0.131335"/>
	<ellipse id="Oval 19" rx="16.359230" ry="17.491583" transform="matrix(0.801426 0.801426 -0.598094 0.598094 624.813 727.406)" fill="#C4C4C4" fill-opacity="0.131335"/>
	<ellipse id="Oval 203" rx="16.359230" ry="17.491583" transform="matrix(0.801426 0.801426 -0.598094 0.598094 873.102 394.707)" fill="#C4C4C4" fill-opacity="0.131335"/>
	<ellipse id="Oval 105" rx="16.359230" ry="17.491583" transform="matrix(0.801426 0.801426 -0.598094 0.598094 323.235 499.916)" fill="#C4C4C4" fill-opacity="0.131335"/>
	<ellipse id="Oval 56" rx="16.359230" ry="17.491583" transform="matrix(0.801426 0.801426 -0.598094 0.598094 499.506 895.313)" fill="#C4C4C4" fill-opacity="0.131335"/>
	<ellipse id="Oval 205" rx="16.359230" ry="17.491583" transform="matrix(0.801426 0.801426 -0.598094 0.598094 747.795 562.614)" fill="#C4C4C4" fill-opacity="0.131335"/>
	<ellipse id="Oval 206" rx="16.359230" ry="17.491583" transform="matrix(0.801426 0.801426 -0.598094 0.598094 446.217 335.125)" fill="#C4C4C4" fill-opacity="0.131335"/>
	<ellipse id="Oval 27" rx="16.359230" ry="17.491583" transform="matrix(0.801426 0.801426 -0.598094 0.598094 593.661 769.149)" fill="#C4C4C4" fill-opacity="0.131335"/>
	<ellipse id="Oval 207" rx="16.359230" ry="17.491583" transform="matrix(0.801426 0.801426 -0.598094 0.598094 841.95 436.45)" fill="#C4C4C4" fill-opacity="0.131335"/>
	<ellipse id="Oval 57" rx="16.359230" ry="17.491583" transform="matrix(0.801426 0.801426 -0.598094 0.598094 468.354 937.056)" fill="#C4C4C4" fill-opacity="0.131335"/>
	<ellipse id="Oval 209" rx="16.359230" ry="17.491583" transform="matrix(0.801426 0.801426 -0.598094 0.598094 716.643 604.357)" fill="#C4C4C4" fill-opacity="0.131335"/>
	<ellipse id="Oval 210" rx="16.359230" ry="17.491583" transform="matrix(0.801426 0.801426 -0.598094 0.598094 415.064 376.868)" fill="#C4C4C4" fill-opacity="0.131335"/>
	<ellipse id="Oval 35" rx="16.359230" ry="17.491583" transform="matrix(0.801426 0.801426 -0.598094 0.598094 562.508 810.892)" fill="#C4C4C4" fill-opacity="0.131335"/>
	<ellipse id="Oval 211" rx="16.359230" ry="17.491583" transform="matrix(0.801426 0.801426 -0.598094 0.598094 810.797 478.193)" fill="#C4C4C4" fill-opacity="0.131335"/>
	<ellipse id="Oval 58" rx="16.359230" ry="17.491583" transform="matrix(0.801426 0.801426 -0.598094 0.598094 437.201 978.799)" fill="#C4C4C4" fill-opacity="0.131335"/>
	<ellipse id="Oval 213" rx="16.359230" ry="17.491583" transform="matrix(0.801426 0.801426 -0.598094 0.598094 685.49 646.1)" fill="#C4C4C4" fill-opacity="0.131335"/>
	<ellipse id="Oval 214" rx="16.359230" ry="17.491583" transform="matrix(0.801426 0.801426 -0.598094 0.598094 383.912 418.611)" fill="#C4C4C4" fill-opacity="0.131335"/>
	<ellipse id="Oval 13" rx="16.359230" ry="17.491583" transform="matrix(0.801426 0.801426 -0.598094 0.598094 804.206 798.233)" fill="#C4C4C4" fill-opacity="0.131335"/>
	<ellipse id="Oval 111" rx="16.359230" ry="17.491583" transform="matrix(0.801426 0.801426 -0.598094 0.598094 502.628 570.744)" fill="#C4C4C4" fill-opacity="0.131335"/>
	<ellipse id="Oval 59" rx="16.359230" ry="17.491583" transform="matrix(0.801426 0.801426 -0.598094 0.598094 678.899 966.14)" fill="#C4C4C4" fill-opacity="0.131335"/>
	<ellipse id="Oval 217" rx="16.359230" ry="17.491583" transform="matrix(0.801426 0.801426 -0.598094 0.598094 927.188 633.442)" fill="#C4C4C4" fill-opacity="0.131335"/>
	<ellipse id="Oval 1006" rx="16.359230" ry="17.491583" transform="matrix(0.801426 0.801426 -0.598094 0.598094 963.353 660.349)" fill="#C4C4C4" fill-opacity="0.131335"/>
	<ellipse id="Oval 112" rx="16.359230" ry="17.491583" transform="matrix(0.801426 0.801426 -0.598094 0.598094 377.321 738.651)" fill="#C4C4C4" fill-opacity="0.131335"/>
	<ellipse id="Oval 218" rx="16.359230" ry="17.491583" transform="matrix(0.801426 0.801426 -0.598094 0.598094 625.61 405.952)" fill="#C4C4C4" fill-opacity="0.131335"/>
	<ellipse id="Oval 20" rx="16.359230" ry="17.491583" transform="matrix(0.801426 0.801426 -0.598094 0.598094 773.751 839.042)" fill="#C4C4C4" fill-opacity="0.131335"/>
	<ellipse id="Oval 113" rx="16.359230" ry="17.491583" transform="matrix(0.801426 0.801426 -0.598094 0.598094 472.173 611.552)" fill="#C4C4C4" fill-opacity="0.131335"/>
	<ellipse id="Oval 220" rx="16.359230" ry="17.491583" transform="matrix(0.801426 0.801426 -0.598094 0.598094 720.462 278.854)" fill="#C4C4C4" fill-opacity="0.131335"/>
	<ellipse id="Oval 221" rx="16.359230" ry="17.491583" transform="matrix(0.801426 0.801426 -0.598094 0.598094 896.733 674.25)" fill="#C4C4C4" fill-opacity="0.131335"/>
	<ellipse id="Oval 1007" rx="16.359230" ry="17.491583" transform="matrix(0.801426 0.801426 -0.598094 0.598094 934.341 702.318)" fill="#C4C4C4" fill-opacity="0.131335"/>
	<ellipse id="Oval 114" rx="16.359230" ry="17.491583" transform="matrix(0.801426 0.801426 -0.598094 0.598094 346.866 779.459)" fill="#C4C4C4" fill-opacity="0.131335"/>
	<ellipse id="Oval 222" rx="16.359230" ry="17.491583" transform="matrix(0.801426 0.801426 -0.598094 0.598094 595.155 446.76)" fill="#C4C4C4" fill-opacity="0.131335"/>
	<ellipse id="Oval 28" rx="16.359230" ry="17.491583" transform="matrix(0.801426 0.801426 -0.598094 0.598094 742.599 880.785)" fill="#C4C4C4" fill-opacity="0.131335"/>
	<ellipse id="Oval 115" rx="16.359230" ry="17.491583" transform="matrix(0.801426 0.801426 -0.598094 0.598094 441.02 653.295)" fill="#C4C4C4" fill-opacity="0.131335"/>
	<ellipse id="Oval 224" rx="16.359230" ry="17.491583" transform="matrix(0.801426 0.801426 -0.598094 0.598094 689.309 320.597)" fill="#C4C4C4" fill-opacity="0.131335"/>
	<ellipse id="Oval 225" rx="16.359230" ry="17.491583" transform="matrix(0.801426 0.801426 -0.598094 0.598094 865.581 715.993)" fill="#C4C4C4" fill-opacity="0.131335"/>
	<ellipse id="Oval 116" rx="16.359230" ry="17.491583" transform="matrix(0.801426 0.801426 -0.598094 0.598094 315.713 821.202)" fill="#C4C4C4" fill-opacity="0.131335"/>
	<ellipse id="Oval 226" rx="16.359230" ry="17.491583" transform="matrix(0.801426 0.801426 -0.598094 0.598094 564.002 488.504)" fill="#C4C4C4" fill-opacity="0.131335"/>
	<ellipse id="Oval 36" rx="16.359230" ry="17.491583" transform="matrix(0.801426 0.801426 -0.598094 0.598094 711.447 922.527)" fill="#C4C4C4" fill-opacity="0.131335"/>
	<ellipse id="Oval 1015" rx="16.359230" ry="17.491583" transform="matrix(0.801426 0.801426 -0.598094 0.598094 749.111 950.52)" fill="#C4C4C4" fill-opacity="0.131335"/>
	<ellipse id="Oval 117" rx="16.359230" ry="17.491583" transform="matrix(0.801426 0.801426 -0.598094 0.598094 409.868 695.038)" fill="#C4C4C4" fill-opacity="0.131335"/>
	<ellipse id="Oval 228" rx="16.359230" ry="17.491583" transform="matrix(0.801426 0.801426 -0.598094 0.598094 658.157 362.34)" fill="#C4C4C4" fill-opacity="0.131335"/>
	<ellipse id="Oval 229" rx="16.359230" ry="17.491583" transform="matrix(0.801426 0.801426 -0.598094 0.598094 834.429 757.736)" fill="#C4C4C4" fill-opacity="0.131335"/>
	<ellipse id="Oval 230" rx="16.359230" ry="17.491583" transform="matrix(0.801426 0.801426 -0.598094 0.598094 532.85 530.247)" fill="#C4C4C4" fill-opacity="0.131335"/>
	<ellipse id="Oval 10" rx="16.359230" ry="17.491583" transform="matrix(0.801426 0.801426 -0.598094 0.598094 728.455 741.701)" fill="#C4C4C4" fill-opacity="0.131335"/>
	<ellipse id="Oval 119" rx="16.359230" ry="17.491583" transform="matrix(0.801426 0.801426 -0.598094 0.598094 426.877 514.212)" fill="#C4C4C4" fill-opacity="0.131335"/>
	<ellipse id="Oval 63" rx="16.359230" ry="17.491583" transform="matrix(0.801426 0.801426 -0.598094 0.598094 603.148 909.608)" fill="#C4C4C4" fill-opacity="0.131335"/>
	<ellipse id="Oval 233" rx="16.359230" ry="17.491583" transform="matrix(0.801426 0.801426 -0.598094 0.598094 851.437 576.91)" fill="#C4C4C4" fill-opacity="0.131335"/>
	<ellipse id="Oval 120" rx="16.359230" ry="17.491583" transform="matrix(0.801426 0.801426 -0.598094 0.598094 301.57 682.119)" fill="#C4C4C4" fill-opacity="0.131335"/>
	<ellipse id="Oval 234" rx="16.359230" ry="17.491583" transform="matrix(0.801426 0.801426 -0.598094 0.598094 549.859 349.42)" fill="#C4C4C4" fill-opacity="0.131335"/>
	<ellipse id="Oval 21" rx="16.359230" ry="17.491583" transform="matrix(0.801426 0.801426 -0.598094 0.598094 698 782.51)" fill="#C4C4C4" fill-opacity="0.131335"/>
	<ellipse id="Oval 121" rx="16.359230" ry="17.491583" transform="matrix(0.801426 0.801426 -0.598094 0.598094 396.422 555.02)" fill="#C4C4C4" fill-opacity="0.131335"/>
	<ellipse id="Oval 64" rx="16.359230" ry="17.491583" transform="matrix(0.801426 0.801426 -0.598094 0.598094 572.693 950.417)" fill="#C4C4C4" fill-opacity="0.131335"/>
	<ellipse id="Oval 237" rx="16.359230" ry="17.491583" transform="matrix(0.801426 0.801426 -0.598094 0.598094 820.982 617.718)" fill="#C4C4C4" fill-opacity="0.131335"/>
	<ellipse id="Oval 122" rx="16.359230" ry="17.491583" transform="matrix(0.801426 0.801426 -0.598094 0.598094 271.115 722.927)" fill="#C4C4C4" fill-opacity="0.131335"/>
	<ellipse id="Oval 238" rx="16.359230" ry="17.491583" transform="matrix(0.801426 0.801426 -0.598094 0.598094 519.404 390.229)" fill="#C4C4C4" fill-opacity="0.131335"/>
	<ellipse id="Oval 29" rx="16.359230" ry="17.491583" transform="matrix(0.801426 0.801426 -0.598094 0.598094 666.848 824.253)" fill="#C4C4C4" fill-opacity="0.131335"/>
	<ellipse id="Oval 239" rx="16.359230" ry="17.491583" transform="matrix(0.801426 0.801426 -0.598094 0.598094 915.137 491.554)" fill="#C4C4C4" fill-opacity="0.131335"/>
	<ellipse id="Oval 1004" rx="16.359230" ry="17.491583" transform="matrix(0.801426 0.801426 -0.598094 0.598094 951.891 521.019)" fill="#C4C4C4" fill-opacity="0.131335"/>
	<ellipse id="Oval 1009" rx="16.359230" ry="17.491583" transform="matrix(0.801426 0.801426 -0.598094 0.598094 989.705 549.24)" fill="#C4C4C4" fill-opacity="0.131335"/>
	<ellipse id="Oval 123" rx="16.359230" ry="17.491583" transform="matrix(0.801426 0.801426 -0.598094 0.598094 365.269 596.764)" fill="#C4C4C4" fill-opacity="0.131335"/>
	<ellipse id="Oval 240" rx="16.359230" ry="17.491583" transform="matrix(0.801426 0.801426 -0.598094 0.598094 613.558 264.065)" fill="#C4C4C4" fill-opacity="0.131335"/>
	<ellipse id="Oval 65" rx="16.359230" ry="17.491583" transform="matrix(0.801426 0.801426 -0.598094 0.598094 541.541 992.16)" fill="#C4C4C4" fill-opacity="0.131335"/>
	<ellipse id="Oval 241" rx="16.359230" ry="17.491583" transform="matrix(0.801426 0.801426 -0.598094 0.598094 789.83 659.461)" fill="#C4C4C4" fill-opacity="0.131335"/>
	<ellipse id="Oval 242" rx="16.359230" ry="17.491583" transform="matrix(0.801426 0.801426 -0.598094 0.598094 488.252 431.972)" fill="#C4C4C4" fill-opacity="0.131335"/>
	<ellipse id="Oval 37" rx="16.359230" ry="17.491583" transform="matrix(0.801426 0.801426 -0.598094 0.598094 635.696 865.996)" fill="#C4C4C4" fill-opacity="0.131335"/>
	<ellipse id="Oval 243" rx="16.359230" ry="17.491583" transform="matrix(0.801426 0.801426 -0.598094 0.598094 883.985 533.297)" fill="#C4C4C4" fill-opacity="0.131335"/>
	<ellipse id="Oval 125" rx="16.359230" ry="17.491583" transform="matrix(0.801426 0.801426 -0.598094 0.598094 334.117 638.506)" fill="#C4C4C4" fill-opacity="0.131335"/>
	<ellipse id="Oval 244" rx="16.359230" ry="17.491583" transform="matrix(0.801426 0.801426 -0.598094 0.598094 582.406 305.808)" fill="#C4C4C4" fill-opacity="0.131335"/>
	<ellipse id="Oval 245" rx="16.359230" ry="17.491583" transform="matrix(0.801426 0.801426 -0.598094 0.598094 758.678 701.204)" fill="#C4C4C4" fill-opacity="0.131335"/>
	<ellipse id="Oval 246" rx="16.359230" ry="17.491583" transform="matrix(0.801426 0.801426 -0.598094 0.598094 457.099 473.715)" fill="#C4C4C4" fill-opacity="0.131335"/>
	<ellipse id="Oval 14" rx="16.359230" ry="17.491583" transform="matrix(0.801426 0.801426 -0.598094 0.598094 882.055 856.816)" fill="#C4C4C4" fill-opacity="0.131335"/>
	<ellipse id="Oval 127" rx="16.359230" ry="17.491583" transform="matrix(0.801426 0.801426 -0.598094 0.598094 580.477 629.327)" fill="#C4C4C4" fill-opacity="0.131335"/>
	<ellipse id="Oval 248" rx="16.359230" ry="17.491583" transform="matrix(0.801426 0.801426 -0.598094 0.598094 828.766 296.628)" fill="#C4C4C4" fill-opacity="0.131335"/>
	<ellipse id="Oval 1017" rx="16.359230" ry="17.491583" transform="matrix(0.801426 0.801426 -0.598094 0.598094 858.786 255.962)" fill="#C4C4C4" fill-opacity="0.131335"/>
	<ellipse id="Oval 128" rx="16.359230" ry="17.491583" transform="matrix(0.801426 0.801426 -0.598094 0.598094 455.17 797.233)" fill="#C4C4C4" fill-opacity="0.131335"/>
	<ellipse id="Oval 250" rx="16.359230" ry="17.491583" transform="matrix(0.801426 0.801426 -0.598094 0.598094 703.459 464.535)" fill="#C4C4C4" fill-opacity="0.131335"/>
	<ellipse id="Oval 129" rx="16.359230" ry="17.491583" transform="matrix(0.801426 0.801426 -0.598094 0.598094 550.022 670.135)" fill="#C4C4C4" fill-opacity="0.131335"/>
	<ellipse id="Oval 252" rx="16.359230" ry="17.491583" transform="matrix(0.801426 0.801426 -0.598094 0.598094 798.311 337.436)" fill="#C4C4C4" fill-opacity="0.131335"/>
	<ellipse id="Oval 130" rx="16.359230" ry="17.491583" transform="matrix(0.801426 0.801426 -0.598094 0.598094 424.715 838.042)" fill="#C4C4C4" fill-opacity="0.131335"/>
	<ellipse id="Oval 254" rx="16.359230" ry="17.491583" transform="matrix(0.801426 0.801426 -0.598094 0.598094 673.004 505.343)" fill="#C4C4C4" fill-opacity="0.131335"/>
	<ellipse id="Oval 131" rx="16.359230" ry="17.491583" transform="matrix(0.801426 0.801426 -0.598094 0.598094 518.869 711.878)" fill="#C4C4C4" fill-opacity="0.131335"/>
	<ellipse id="Oval 256" rx="16.359230" ry="17.491583" transform="matrix(0.801426 0.801426 -0.598094 0.598094 767.159 379.18)" fill="#C4C4C4" fill-opacity="0.131335"/>
	<ellipse id="Oval 132" rx="16.359230" ry="17.491583" transform="matrix(0.801426 0.801426 -0.598094 0.598094 393.562 879.785)" fill="#C4C4C4" fill-opacity="0.131335"/>
	<ellipse id="Oval 258" rx="16.359230" ry="17.491583" transform="matrix(0.801426 0.801426 -0.598094 0.598094 641.851 547.086)" fill="#C4C4C4" fill-opacity="0.131335"/>
	<ellipse id="Oval 133" rx="16.359230" ry="17.491583" transform="matrix(0.801426 0.801426 -0.598094 0.598094 487.717 753.621)" fill="#C4C4C4" fill-opacity="0.131335"/>
	<ellipse id="Oval 260" rx="16.359230" ry="17.491583" transform="matrix(0.801426 0.801426 -0.598094 0.598094 736.006 420.923)" fill="#C4C4C4" fill-opacity="0.131335"/>
	<ellipse id="Oval 261" rx="16.359230" ry="17.491583" transform="matrix(0.801426 0.801426 -0.598094 0.598094 912.278 816.319)" fill="#C4C4C4" fill-opacity="0.131335"/>
	<ellipse id="Oval 134" rx="16.359230" ry="17.491583" transform="matrix(0.801426 0.801426 -0.598094 0.598094 362.41 921.528)" fill="#C4C4C4" fill-opacity="0.131335"/>
	<ellipse id="Oval 262" rx="16.359230" ry="17.491583" transform="matrix(0.801426 0.801426 -0.598094 0.598094 610.699 588.83)" fill="#C4C4C4" fill-opacity="0.131335"/>
</svg>
